<?xml version="1.0" encoding="UTF-8"?>
<svg id="_レイヤー_2" data-name="レイヤー 2" xmlns="http://www.w3.org/2000/svg" viewBox="0 0 20 19.18">
  <defs>
    <style>
      .cls-1 {
        fill: #333;
      }
    </style>
  </defs>
  <g id="main">
    <path class="cls-1" d="M2.34,7.24h9.16l-3.21-3.21c-.91-.91-.91-2.39,0-3.31l.03-.03c.91-.91,2.39-.91,3.31,0l5.56,5.56,2.42,2.42c.51.51.51,1.33,0,1.84l-2.42,2.42-5.56,5.56c-.91.91-2.39.91-3.31,0l-.03-.03c-.91-.91-.91-2.39,0-3.31l3.19-3.19H2.34c-1.29,0-2.34-1.05-2.34-2.34v-.05c0-1.29,1.05-2.34,2.34-2.34Z"/>
  </g>
</svg>