<?xml version="1.0" encoding="UTF-8"?>
<svg id="_レイヤー_2" data-name="レイヤー 2" xmlns="http://www.w3.org/2000/svg" viewBox="0 0 19.18 20">
  <defs>
    <style>
      .cls-1 {
        fill: #333;
      }
    </style>
  </defs>
  <g id="main">
    <path class="cls-1" d="M7.24,17.66v-9.16l-3.21,3.21c-.91.91-2.39.91-3.31,0l-.03-.03c-.91-.91-.91-2.39,0-3.31L6.25,2.8,8.67.38c.51-.51,1.33-.51,1.84,0l2.42,2.42,5.56,5.56c.91.91.91,2.39,0,3.31l-.03.03c-.91.91-2.39.91-3.31,0l-3.19-3.19v9.14c0,1.29-1.05,2.34-2.34,2.34h-.05c-1.29,0-2.34-1.05-2.34-2.34Z"/>
  </g>
</svg>