<?xml version="1.0" encoding="UTF-8"?>
<svg id="_レイヤー_2" data-name="レイヤー 2" xmlns="http://www.w3.org/2000/svg" viewBox="0 0 298.17 96.43">
  <defs>
    <style>
      .cls-1 {
        fill: #ef8200;
      }

      .cls-2 {
        fill: #7d7d7d;
      }
    </style>
  </defs>
  <g id="main">
    <g>
      <g>
        <path class="cls-1" d="M76.07,67.57c0,1.1.94,2.15,2.09,2.15h15.08c1.2,0,1.99.99,1.99,1.94,0,1.05-.79,1.99-1.99,1.99h-20.57c-3.93,0-6.6-1.62-6.6-6.18v-31.88c0-1.2,0-2.04.68-2.93,1-1.31,2.77-1.89,4.29-1.89,1.05,0,2.51.31,3.61,1.15,1.41,1.05,1.41,2.3,1.41,3.66v31.99Z"/>
        <path class="cls-1" d="M107.53,73.01c-.37,1.1-1.26,1.41-1.89,1.41-1,0-1.99-.79-1.99-1.99,0-.21.05-.42.1-.58l11.67-36.7c1-3.04,4.08-4.4,6.65-4.4,1.67,0,5.23.47,6.65,4.4l11.83,32.98c.37.94.42,1.31.42,1.67,0,2.72-2.72,4.61-5.76,4.61s-3.66-1.89-4.19-3.4l-2.93-8.12h-17.33l-3.25,10.11ZM112.03,58.93h14.66l-6.75-18.58c-.21-.52-.42-1.15-.99-1.15-.63,0-.89.73-1.05,1.2l-5.86,18.53Z"/>
        <path class="cls-1" d="M185.84,69.61c0,3.56-4.03,4.82-6.8,4.82-3.25,0-5.08-1.15-6.28-3.3l-17.33-31.09c-.16-.31-.31-.58-.58-.58-.37,0-.47.31-.47.58v32.4c0,1.26-1,1.99-1.94,1.99-1.05,0-1.99-.73-1.99-1.99v-36.8c0-2.83,3.24-4.87,6.54-4.87,1.83,0,4.97.58,6.65,3.61l16.86,30.15c.37.63.58.94.89.94.47,0,.47-.63.47-.94v-31.72c0-1.26.99-2.04,1.99-2.04s1.99.79,1.99,2.04v36.8Z"/>
        <path class="cls-1" d="M227.14,51.39c3.93,0,6.6,1.62,6.6,6.12v5.5c0,4.03-5.65,11.41-17.8,11.41-15.44,0-20.78-10.1-20.78-21.67,0-14.55,8.17-21.99,20.31-21.99,10.99,0,17.43,6.6,17.43,11.1,0,3.03-2.88,3.77-4.55,3.77-2.57,0-4.66-1.15-5.18-3.77-.89-4.35-3.98-6.81-8.11-6.81-7.64,0-9.32,7.96-9.32,17.7s2.36,17.75,9.74,17.75c3.66,0,8.27-2.25,8.27-6.96v-6.13c0-1.05-.94-2.09-2.09-2.09h-3.93c-1.2,0-1.99-.99-1.99-1.94,0-1.05.79-1.99,1.99-1.99h9.42Z"/>
        <path class="cls-1" d="M253.47,69.66c0,1.2.05,2.04-.63,2.93-.94,1.26-2.77,1.83-4.29,1.83-1.05,0-2.51-.26-3.61-1.1-1.41-1.05-1.41-2.3-1.41-3.66v-34.08c0-1.2,0-2.04.68-2.93.94-1.31,2.72-1.89,4.24-1.89,1.05,0,2.51.31,3.67,1.15,1.36,1.05,1.36,2.3,1.36,3.66v34.08Z"/>
        <path class="cls-1" d="M297.02,40.66c0,2.36-2.36,3.87-4.92,3.87-.52,0-4.4,0-5.02-3.66-.52-3.3-2.3-5.92-7.43-5.92s-6.23,2.36-6.23,4.82c0,3.61,1.67,4.34,10.52,8.16,8.27,3.56,14.24,6.18,14.24,14.4,0,10.05-9.53,12.14-17.33,12.14-15.02,0-17.8-9.79-17.8-11.52,0-2.46,2.36-3.93,4.97-3.93,4.55,0,4.92,3.14,5.08,4.35.68,6.02,4.5,6.91,7.54,6.91,1.36,0,7.07,0,7.07-5.39,0-3.98-3.66-5.86-8.79-7.96-9.63-3.98-15.34-6.65-15.34-14.45,0-9.74,9.32-11.73,16.65-11.73,13.92,0,16.8,8.11,16.8,9.89Z"/>
      </g>
      <g>
        <path class="cls-2" d="M44.23,36.75c-.51-2.36-2.34-1.96-2.58-2.99-.24-1.03,1.68-3.29.35-5.68-1.34-2.39-4.15-1.86-4.91-1.91,1.68-2.62,6.19-12.37.5-13.76-3.11-.76-4.87,2.48-7.58,5.41-4.19,4.55-6.55,7.03-11.17,8.99C7.33,31.72-1.17,38.45.13,50.99c1.13,10.8,14.15,18.56,26.85,15.55-.6,1.57-2.81,6.93-3.41,8.34-2.78-.42-5.98-.78-10.6.62-4.7,1.42-12.38,7.05-9.65,14.89,2.23,6.4,9.42,6.93,13.85,5.17,5.96-2.37,9.54-13.63,10.23-15.2,1.92.3,11.26-.56,14.04-6.99,1.23-2.84-1.65-3.46-2.71-1.59-2.3,4.06-6.94,3.93-9.47,3.73,1.23-3.09,4.25-10.57,5.28-12.79.82-1.76-.21-3.45-2.79-2.85-7.07,1.64-22.95.21-23.99-12.24-.81-9.61,9.34-13.33,16.19-18.3,4.33-3.15,6.1-5.7,8.9-9.45,1.46-1.95,2.13-3.77,3.59-3.13,1.83.8-2.03,9.37-5.94,12.92-1.19,1.07-.44,2.15.91,1.67,2.01-.71,5.77-2.54,6.87-.9,1.24,1.85-1.06,3.17-.45,4.59.84,1.97,2.18.97,2.59,2.58.42,1.61-2.42,2.04-2.14,4.35.17,1.4,1.32,1.51,1.17,2.8-.15,1.29-1.76,1.48-2.24,2.95-.63,1.97.65,1.35-.02,3.49-.64,2.03-4,2.59-9.35,2.03-3.7-.38-8.79-2.19-10.25-2.85-1.57-.7-2.41,1.28-1.04,2.05,1.66.94,6.93,3.46,10.78,4.15,6.21,1.11,12.71-.67,13.56-4.62.41-1.9-.49-1.87-.19-3.4.25-1.29,2.07-1.47,2.47-3.47.37-1.85-.89-2.05-.98-3.24-.09-1.19,2.55-2.72,2.04-5.08ZM16.42,89.74s0,0,0,0c0,0,0,0,0,0ZM11.51,89.5c-3.95-3.18.81-6.77,2.92-7.9,2.13-1.14,4.28-1.94,7.33-1.8-1.22,2.92-4.96,13.97-10.25,9.7Z"/>
        <path class="cls-1" d="M34.62,9.04c1.56-.21,1.58-4.17,1.3-6.25-.28-2.07-1.29-2.95-2.53-2.78-1.24.17-1.98,1.29-1.7,3.36.28,2.07,1.37,5.88,2.93,5.67Z"/>
        <path class="cls-1" d="M41.42,10.17c1.36.88,4.08-2.25,5.27-4.08,1.19-1.83,1.01-3.21-.07-3.91-1.08-.7-2.42-.31-3.61,1.52-1.19,1.84-2.94,5.59-1.59,6.47Z"/>
        <path class="cls-1" d="M44.59,15.38c.37,1.25,3.94.69,5.77.15,1.83-.54,2.51-1.5,2.21-2.5-.29-1-1.38-1.44-3.22-.91-1.83.54-5.14,2-4.77,3.26Z"/>
        <path class="cls-1" d="M25.8,7.15c-1.51-1.16-2.69-1.15-3.33-.32-.64.83-.35,1.97,1.16,3.13,1.51,1.17,4.64,2.98,5.44,1.95.8-1.04-1.76-3.59-3.27-4.76Z"/>
      </g>
    </g>
  </g>
</svg>