<?xml version="1.0" encoding="UTF-8"?>
<svg id="_レイヤー_2" data-name="レイヤー 2" xmlns="http://www.w3.org/2000/svg" viewBox="0 0 357.81 115.71">
  <defs>
    <style>
      .cls-1 {
        fill: #ef8200;
      }

      .cls-2 {
        fill: #7d7d7d;
      }
    </style>
  </defs>
  <g id="menu">
    <g>
      <g>
        <path class="cls-1" d="M91.28,81.08c0,1.32,1.13,2.58,2.51,2.58h18.09c1.44,0,2.39,1.19,2.39,2.32,0,1.26-.94,2.39-2.39,2.39h-24.69c-4.71,0-7.92-1.95-7.92-7.41v-38.26c0-1.44,0-2.45.82-3.52,1.19-1.57,3.33-2.26,5.15-2.26,1.26,0,3.01.38,4.33,1.38,1.7,1.26,1.7,2.77,1.7,4.4v38.38Z"/>
        <path class="cls-1" d="M129.03,87.62c-.44,1.32-1.51,1.7-2.26,1.7-1.19,0-2.39-.94-2.39-2.39,0-.25.06-.5.13-.69l14.01-44.03c1.19-3.64,4.9-5.28,7.98-5.28,2.01,0,6.28.56,7.98,5.28l14.2,39.58c.44,1.13.5,1.57.5,2.01,0,3.27-3.27,5.53-6.91,5.53s-4.4-2.26-5.03-4.08l-3.52-9.74h-20.79l-3.89,12.13ZM134.43,70.72h17.59l-8.1-22.3c-.25-.63-.5-1.38-1.19-1.38-.76,0-1.07.88-1.26,1.45l-7.04,22.24Z"/>
        <path class="cls-1" d="M223.01,83.53c0,4.27-4.84,5.78-8.17,5.78-3.89,0-6.09-1.38-7.54-3.96l-20.79-37.31c-.19-.38-.38-.69-.69-.69-.44,0-.56.38-.56.69v38.88c0,1.51-1.19,2.39-2.32,2.39-1.26,0-2.39-.88-2.39-2.39v-44.16c0-3.39,3.89-5.84,7.85-5.84,2.2,0,5.97.69,7.98,4.34l20.23,36.18c.44.75.69,1.13,1.07,1.13.57,0,.57-.75.57-1.13v-38.07c0-1.51,1.19-2.45,2.39-2.45s2.39.94,2.39,2.45v44.16Z"/>
        <path class="cls-1" d="M272.57,61.67c4.71,0,7.92,1.95,7.92,7.35v6.6c0,4.84-6.78,13.69-21.36,13.69-18.53,0-24.94-12.12-24.94-26.01,0-17.47,9.8-26.38,24.38-26.38,13.19,0,20.92,7.92,20.92,13.32,0,3.64-3.45,4.52-5.46,4.52-3.08,0-5.59-1.38-6.22-4.52-1.07-5.21-4.77-8.17-9.74-8.17-9.17,0-11.18,9.55-11.18,21.23s2.83,21.3,11.68,21.3c4.4,0,9.93-2.7,9.93-8.35v-7.35c0-1.26-1.13-2.51-2.51-2.51h-4.71c-1.45,0-2.39-1.19-2.39-2.32,0-1.26.94-2.39,2.39-2.39h11.31Z"/>
        <path class="cls-1" d="M304.16,83.59c0,1.45.06,2.45-.75,3.52-1.13,1.51-3.33,2.2-5.15,2.2-1.26,0-3.02-.31-4.34-1.32-1.7-1.26-1.7-2.76-1.7-4.4v-40.9c0-1.44,0-2.45.82-3.52,1.13-1.57,3.27-2.26,5.09-2.26,1.26,0,3.02.38,4.4,1.38,1.63,1.26,1.63,2.77,1.63,4.4v40.9Z"/>
        <path class="cls-1" d="M356.42,48.79c0,2.83-2.83,4.65-5.91,4.65-.63,0-5.28,0-6.03-4.4-.63-3.96-2.77-7.1-8.92-7.1s-7.47,2.83-7.47,5.78c0,4.33,2.01,5.21,12.63,9.8,9.93,4.27,17.09,7.41,17.09,17.28,0,12.06-11.43,14.57-20.79,14.57-18.03,0-21.36-11.75-21.36-13.82,0-2.95,2.83-4.71,5.97-4.71,5.46,0,5.9,3.77,6.09,5.21.82,7.22,5.4,8.29,9.05,8.29,1.63,0,8.48,0,8.48-6.47,0-4.77-4.4-7.03-10.55-9.55-11.56-4.77-18.41-7.98-18.41-17.34,0-11.68,11.18-14.07,19.98-14.07,16.71,0,20.16,9.74,20.16,11.87Z"/>
      </g>
      <g>
        <path class="cls-2" d="M53.07,44.1c-.61-2.83-2.81-2.35-3.1-3.59-.29-1.23,2.02-3.94.41-6.82-1.6-2.87-4.98-2.23-5.9-2.29,2.01-3.15,7.43-14.84.6-16.51-3.74-.91-5.85,2.97-9.09,6.49-5.03,5.46-7.86,8.43-13.41,10.79C8.79,38.06-1.41,46.14.16,61.19c1.35,12.96,16.97,22.28,32.22,18.65-.73,1.89-3.38,8.32-4.1,10.01-3.34-.51-7.18-.93-12.72.75-5.64,1.71-14.86,8.46-11.58,17.87,2.67,7.67,11.3,8.32,16.62,6.2,7.15-2.85,11.44-16.35,12.27-18.24,2.3.36,13.51-.67,16.85-8.39,1.48-3.41-1.97-4.15-3.25-1.91-2.76,4.87-8.33,4.72-11.37,4.47,1.48-3.71,5.1-12.69,6.34-15.34.99-2.12-.26-4.14-3.35-3.42-8.49,1.97-27.54.25-28.79-14.69-.97-11.53,11.21-15.99,19.43-21.96,5.2-3.78,7.32-6.84,10.68-11.34,1.75-2.34,2.55-4.52,4.31-3.76,2.2.96-2.43,11.25-7.13,15.5-1.42,1.29-.53,2.58,1.09,2,2.41-.86,6.93-3.04,8.24-1.08,1.49,2.22-1.27,3.81-.54,5.51,1.01,2.36,2.61,1.16,3.11,3.09.5,1.93-2.91,2.45-2.57,5.22.21,1.68,1.58,1.81,1.4,3.36-.18,1.55-2.12,1.78-2.68,3.54-.76,2.36.78,1.62-.02,4.18-.77,2.43-4.81,3.11-11.22,2.44-4.43-.46-10.54-2.63-12.3-3.42-1.88-.84-2.89,1.53-1.25,2.46,1.99,1.13,8.31,4.16,12.94,4.98,7.45,1.33,15.25-.81,16.27-5.55.49-2.27-.58-2.24-.23-4.08.3-1.55,2.48-1.77,2.97-4.17.45-2.22-1.07-2.46-1.17-3.89-.11-1.43,3.06-3.27,2.45-6.1ZM19.71,107.69s0,0,0,0c0,0,0,0,0,0ZM13.81,107.4c-4.73-3.82.97-8.13,3.5-9.48,2.56-1.37,5.13-2.33,8.8-2.16-1.46,3.5-5.96,16.76-12.3,11.64Z"/>
        <path class="cls-1" d="M41.54,10.85c1.87-.26,1.9-5.01,1.56-7.49-.34-2.49-1.55-3.54-3.04-3.33-1.49.2-2.37,1.54-2.04,4.03.34,2.48,1.65,7.06,3.51,6.8Z"/>
        <path class="cls-1" d="M49.71,12.2c1.63,1.06,4.89-2.7,6.32-4.9,1.43-2.2,1.21-3.85-.09-4.69-1.3-.84-2.9-.38-4.33,1.82-1.43,2.2-3.53,6.71-1.9,7.77Z"/>
        <path class="cls-1" d="M53.51,18.45c.44,1.51,4.73.83,6.93.18,2.2-.65,3.01-1.8,2.66-3-.35-1.2-1.66-1.73-3.86-1.09-2.2.65-6.17,2.4-5.73,3.91Z"/>
        <path class="cls-1" d="M30.96,8.57c-1.82-1.4-3.23-1.37-3.99-.38-.76.99-.42,2.36,1.39,3.76,1.82,1.4,5.57,3.58,6.53,2.33.96-1.24-2.11-4.31-3.93-5.71Z"/>
      </g>
    </g>
  </g>
</svg>