<?xml version="1.0" encoding="UTF-8"?>
<svg id="_レイヤー_2" data-name="レイヤー 2" xmlns="http://www.w3.org/2000/svg" viewBox="0 0 194.68 62.96">
  <defs>
    <style>
      .cls-1 {
        fill: #fff;
      }
    </style>
  </defs>
  <g id="main">
    <g>
      <g>
        <path class="cls-1" d="M49.66,44.12c0,.72.62,1.4,1.37,1.4h9.84c.78,0,1.3.65,1.3,1.26,0,.68-.51,1.3-1.3,1.3h-13.43c-2.56,0-4.31-1.06-4.31-4.03v-20.82c0-.78,0-1.33.44-1.91.65-.85,1.81-1.23,2.8-1.23.68,0,1.64.21,2.36.75.92.68.92,1.5.92,2.39v20.88Z"/>
        <path class="cls-1" d="M70.21,47.67c-.24.72-.82.92-1.23.92-.65,0-1.3-.51-1.3-1.3,0-.14.03-.27.07-.38l7.62-23.96c.65-1.98,2.67-2.87,4.34-2.87,1.09,0,3.42.31,4.34,2.87l7.72,21.53c.24.61.27.85.27,1.09,0,1.78-1.78,3.01-3.76,3.01s-2.39-1.23-2.73-2.22l-1.91-5.3h-11.31l-2.12,6.6ZM73.14,38.48h9.57l-4.41-12.13c-.14-.34-.27-.75-.65-.75-.41,0-.58.48-.68.79l-3.83,12.1Z"/>
        <path class="cls-1" d="M121.33,45.45c0,2.32-2.63,3.15-4.44,3.15-2.12,0-3.31-.75-4.1-2.15l-11.31-20.3c-.1-.21-.21-.38-.38-.38-.24,0-.31.21-.31.38v21.16c0,.82-.65,1.3-1.26,1.3-.68,0-1.3-.48-1.3-1.3v-24.03c0-1.85,2.12-3.18,4.27-3.18,1.2,0,3.25.38,4.34,2.36l11.01,19.69c.24.41.38.62.58.62.31,0,.31-.41.31-.62v-20.71c0-.82.65-1.33,1.3-1.33s1.3.51,1.3,1.33v24.03Z"/>
        <path class="cls-1" d="M148.3,33.55c2.56,0,4.31,1.06,4.31,4v3.59c0,2.63-3.69,7.45-11.62,7.45-10.08,0-13.57-6.6-13.57-14.15,0-9.5,5.33-14.36,13.26-14.36,7.18,0,11.38,4.31,11.38,7.25,0,1.98-1.88,2.46-2.97,2.46-1.68,0-3.04-.75-3.38-2.46-.58-2.84-2.6-4.44-5.3-4.44-4.99,0-6.08,5.2-6.08,11.55s1.54,11.59,6.36,11.59c2.39,0,5.4-1.47,5.4-4.55v-4c0-.68-.62-1.37-1.37-1.37h-2.56c-.79,0-1.3-.65-1.3-1.26,0-.68.51-1.3,1.3-1.3h6.15Z"/>
        <path class="cls-1" d="M165.49,45.48c0,.79.03,1.33-.41,1.91-.62.82-1.81,1.2-2.8,1.2-.68,0-1.64-.17-2.36-.72-.92-.68-.92-1.5-.92-2.39v-22.25c0-.78,0-1.33.44-1.91.62-.85,1.78-1.23,2.77-1.23.68,0,1.64.21,2.39.75.89.68.89,1.5.89,2.39v22.25Z"/>
        <path class="cls-1" d="M193.93,26.55c0,1.54-1.54,2.53-3.21,2.53-.34,0-2.87,0-3.28-2.39-.34-2.15-1.5-3.86-4.85-3.86s-4.07,1.54-4.07,3.15c0,2.36,1.09,2.84,6.87,5.33,5.4,2.32,9.3,4.03,9.3,9.4,0,6.56-6.22,7.93-11.31,7.93-9.81,0-11.62-6.39-11.62-7.52,0-1.61,1.54-2.56,3.25-2.56,2.97,0,3.21,2.05,3.31,2.84.44,3.93,2.94,4.51,4.92,4.51.89,0,4.61,0,4.61-3.52,0-2.6-2.39-3.83-5.74-5.19-6.29-2.6-10.01-4.34-10.01-9.43,0-6.36,6.08-7.66,10.87-7.66,9.09,0,10.97,5.3,10.97,6.46Z"/>
      </g>
      <g>
        <path class="cls-1" d="M28.88,24c-.33-1.54-1.53-1.28-1.69-1.95-.16-.67,1.1-2.15.23-3.71-.87-1.56-2.71-1.21-3.21-1.25,1.09-1.71,4.04-8.08.33-8.98-2.03-.49-3.18,1.62-4.95,3.53-2.74,2.97-4.28,4.59-7.29,5.87C4.78,20.71-.77,25.1.09,33.29c.73,7.05,9.24,12.12,17.53,10.15-.39,1.03-1.84,4.52-2.23,5.45-1.82-.28-3.91-.51-6.92.41-3.07.93-8.08,4.6-6.3,9.72,1.46,4.18,6.15,4.53,9.04,3.37,3.89-1.55,6.23-8.9,6.68-9.92,1.25.2,7.35-.36,9.17-4.56.8-1.86-1.07-2.26-1.77-1.04-1.5,2.65-4.53,2.57-6.18,2.43.8-2.02,2.77-6.9,3.45-8.35.54-1.15-.14-2.25-1.82-1.86-4.62,1.07-14.98.14-15.67-7.99-.53-6.27,6.1-8.7,10.57-11.95,2.83-2.05,3.98-3.72,5.81-6.17.95-1.27,1.39-2.46,2.35-2.04,1.2.52-1.32,6.12-3.88,8.44-.77.7-.29,1.4.59,1.09,1.31-.47,3.77-1.66,4.48-.59.81,1.21-.69,2.07-.3,3,.55,1.29,1.42.63,1.69,1.68.27,1.05-1.58,1.33-1.4,2.84.11.92.86.99.76,1.83-.1.84-1.15.97-1.46,1.92-.41,1.28.43.88-.01,2.28-.42,1.32-2.61,1.69-6.11,1.33-2.41-.25-5.74-1.43-6.69-1.86-1.02-.46-1.57.83-.68,1.34,1.08.61,4.52,2.26,7.04,2.71,4.05.72,8.3-.44,8.85-3.02.27-1.24-.32-1.22-.13-2.22.16-.84,1.35-.96,1.61-2.27.24-1.21-.58-1.34-.64-2.12-.06-.78,1.66-1.78,1.33-3.32ZM10.72,58.59s0,0,0,0c0,0,0,0,0,0ZM7.52,58.44c-2.58-2.08.53-4.42,1.91-5.16,1.39-.74,2.79-1.27,4.79-1.18-.79,1.9-3.24,9.12-6.69,6.33Z"/>
        <path class="cls-1" d="M22.6,5.9c1.02-.14,1.03-2.73.85-4.08-.18-1.35-.84-1.92-1.65-1.81-.81.11-1.29.84-1.11,2.19.18,1.35.9,3.84,1.91,3.7Z"/>
        <path class="cls-1" d="M27.05,6.64c.89.58,2.66-1.47,3.44-2.66.78-1.2.66-2.1-.05-2.55-.71-.46-1.58-.2-2.36.99-.78,1.2-1.92,3.65-1.04,4.23Z"/>
        <path class="cls-1" d="M29.11,10.04c.24.82,2.57.45,3.77.1,1.2-.35,1.64-.98,1.45-1.63-.19-.65-.9-.94-2.1-.59-1.2.35-3.36,1.31-3.12,2.13Z"/>
        <path class="cls-1" d="M16.85,4.67c-.99-.76-1.76-.75-2.17-.21-.42.54-.23,1.28.76,2.04.99.76,3.03,1.95,3.55,1.27.52-.68-1.15-2.35-2.14-3.11Z"/>
      </g>
    </g>
  </g>
</svg>